<mxfile host="app.diagrams.net" modified="2024-03-03T16:25:17.257Z" agent="Mozilla/5.0 (Windows NT 10.0; Win64; x64; rv:123.0) Gecko/20100101 Firefox/123.0" etag="NZRSXLDn4O4dpBjdTQ2u" version="22.0.0" type="device">
  <diagram name="Page-1" id="A-LpLz12_seaiBW3jiQz">
    <mxGraphModel dx="1143" dy="813" grid="1" gridSize="10" guides="1" tooltips="1" connect="1" arrows="1" fold="1" page="1" pageScale="1" pageWidth="850" pageHeight="1100" math="0" shadow="0">
      <root>
        <mxCell id="0" />
        <mxCell id="1" parent="0" />
        <mxCell id="uT6LnkUdEUCSdw4KlLYS-1" value="" style="whiteSpace=wrap;html=1;fillColor=none;" parent="1" vertex="1">
          <mxGeometry x="40" y="160" width="760" height="480" as="geometry" />
        </mxCell>
        <mxCell id="qzMGzyw2NbX_YHZTwysK-1" value="" style="shape=actor;whiteSpace=wrap;html=1;" vertex="1" parent="1">
          <mxGeometry x="90" y="443.5" width="50" height="60" as="geometry" />
        </mxCell>
        <mxCell id="qzMGzyw2NbX_YHZTwysK-3" value="" style="outlineConnect=0;dashed=0;verticalLabelPosition=bottom;verticalAlign=top;align=center;html=1;shape=mxgraph.aws3.certificate_manager_2;fillColor=#759C3E;gradientColor=none;rotation=0;" vertex="1" parent="1">
          <mxGeometry x="450" y="240.5" width="85" height="85" as="geometry" />
        </mxCell>
        <mxCell id="qzMGzyw2NbX_YHZTwysK-6" value="" style="sketch=0;points=[[0,0,0],[0.25,0,0],[0.5,0,0],[0.75,0,0],[1,0,0],[0,1,0],[0.25,1,0],[0.5,1,0],[0.75,1,0],[1,1,0],[0,0.25,0],[0,0.5,0],[0,0.75,0],[1,0.25,0],[1,0.5,0],[1,0.75,0]];outlineConnect=0;fontColor=#232F3E;fillColor=#8C4FFF;strokeColor=#ffffff;dashed=0;verticalLabelPosition=bottom;verticalAlign=top;align=center;html=1;fontSize=12;fontStyle=0;aspect=fixed;shape=mxgraph.aws4.resourceIcon;resIcon=mxgraph.aws4.cloudfront;rotation=0;" vertex="1" parent="1">
          <mxGeometry x="450" y="431" width="85" height="85" as="geometry" />
        </mxCell>
        <mxCell id="qzMGzyw2NbX_YHZTwysK-7" value="" style="sketch=0;points=[[0,0,0],[0.25,0,0],[0.5,0,0],[0.75,0,0],[1,0,0],[0,1,0],[0.25,1,0],[0.5,1,0],[0.75,1,0],[1,1,0],[0,0.25,0],[0,0.5,0],[0,0.75,0],[1,0.25,0],[1,0.5,0],[1,0.75,0]];outlineConnect=0;fontColor=#232F3E;fillColor=#8C4FFF;strokeColor=#ffffff;dashed=0;verticalLabelPosition=bottom;verticalAlign=top;align=center;html=1;fontSize=12;fontStyle=0;aspect=fixed;shape=mxgraph.aws4.resourceIcon;resIcon=mxgraph.aws4.route_53;rotation=0;" vertex="1" parent="1">
          <mxGeometry x="250" y="431" width="85" height="85" as="geometry" />
        </mxCell>
        <mxCell id="qzMGzyw2NbX_YHZTwysK-8" value="" style="sketch=0;outlineConnect=0;fontColor=#232F3E;gradientColor=none;fillColor=#7AA116;strokeColor=none;dashed=0;verticalLabelPosition=bottom;verticalAlign=top;align=center;html=1;fontSize=12;fontStyle=0;aspect=fixed;pointerEvents=1;shape=mxgraph.aws4.bucket_with_objects;rotation=0;" vertex="1" parent="1">
          <mxGeometry x="650" y="431" width="85" height="85" as="geometry" />
        </mxCell>
        <mxCell id="qzMGzyw2NbX_YHZTwysK-12" value="" style="edgeStyle=orthogonalEdgeStyle;html=1;endArrow=block;elbow=vertical;startArrow=block;startFill=1;endFill=1;strokeColor=#000000;rounded=0;" edge="1" parent="1">
          <mxGeometry width="100" relative="1" as="geometry">
            <mxPoint x="158" y="476" as="sourcePoint" />
            <mxPoint x="228" y="476" as="targetPoint" />
          </mxGeometry>
        </mxCell>
        <mxCell id="qzMGzyw2NbX_YHZTwysK-13" value="" style="edgeStyle=orthogonalEdgeStyle;html=1;endArrow=block;elbow=vertical;startArrow=block;startFill=1;endFill=1;strokeColor=#000000;rounded=0;" edge="1" parent="1">
          <mxGeometry width="100" relative="1" as="geometry">
            <mxPoint x="355" y="473" as="sourcePoint" />
            <mxPoint x="425" y="473" as="targetPoint" />
          </mxGeometry>
        </mxCell>
        <mxCell id="qzMGzyw2NbX_YHZTwysK-14" value="" style="edgeStyle=orthogonalEdgeStyle;html=1;endArrow=block;elbow=vertical;startArrow=block;startFill=1;endFill=1;strokeColor=#000000;rounded=0;" edge="1" parent="1">
          <mxGeometry width="100" relative="1" as="geometry">
            <mxPoint x="564" y="473" as="sourcePoint" />
            <mxPoint x="634" y="473" as="targetPoint" />
          </mxGeometry>
        </mxCell>
        <mxCell id="qzMGzyw2NbX_YHZTwysK-17" value="route53" style="text;strokeColor=none;fillColor=none;html=1;fontSize=16;fontStyle=0;verticalAlign=middle;align=center;fontFamily=Tahoma;" vertex="1" parent="1">
          <mxGeometry x="242.5" y="522" width="100" height="40" as="geometry" />
        </mxCell>
        <mxCell id="qzMGzyw2NbX_YHZTwysK-18" value="user" style="text;strokeColor=none;fillColor=none;html=1;fontSize=16;fontStyle=0;verticalAlign=middle;align=center;fontFamily=Tahoma;" vertex="1" parent="1">
          <mxGeometry x="65" y="522" width="100" height="40" as="geometry" />
        </mxCell>
        <mxCell id="qzMGzyw2NbX_YHZTwysK-19" value="cloudfront" style="text;strokeColor=none;fillColor=none;html=1;fontSize=16;fontStyle=0;verticalAlign=middle;align=center;fontFamily=Tahoma;" vertex="1" parent="1">
          <mxGeometry x="442.5" y="522" width="100" height="40" as="geometry" />
        </mxCell>
        <mxCell id="qzMGzyw2NbX_YHZTwysK-20" value="s3 endpoint&lt;br&gt;(website)" style="text;strokeColor=none;fillColor=none;html=1;fontSize=16;fontStyle=0;verticalAlign=middle;align=center;fontFamily=Tahoma;" vertex="1" parent="1">
          <mxGeometry x="645" y="522" width="100" height="40" as="geometry" />
        </mxCell>
        <mxCell id="qzMGzyw2NbX_YHZTwysK-21" value="acm ssl certificate" style="text;strokeColor=none;fillColor=none;html=1;fontSize=16;fontStyle=0;verticalAlign=middle;align=center;fontFamily=Tahoma;" vertex="1" parent="1">
          <mxGeometry x="442.5" y="200.5" width="100" height="40" as="geometry" />
        </mxCell>
        <mxCell id="qzMGzyw2NbX_YHZTwysK-23" value="" style="html=1;endArrow=block;elbow=vertical;startArrow=block;startFill=1;endFill=1;strokeColor=#000000;rounded=0;" edge="1" parent="1">
          <mxGeometry width="100" relative="1" as="geometry">
            <mxPoint x="492" y="340" as="sourcePoint" />
            <mxPoint x="492" y="421" as="targetPoint" />
          </mxGeometry>
        </mxCell>
      </root>
    </mxGraphModel>
  </diagram>
</mxfile>
